<svg width="188" height="150" viewBox="0 0 188 150" fill="none" xmlns="http://www.w3.org/2000/svg">

  <mask id="atomly-isotype-mask-1">
    <rect width="100%" height="100%" fill="white" />
    <!-- letter-a-inner-stroke -->
    <path d="M67.5 121.5H17.5L42.5 49L67.5 121.5Z" stroke="black" stroke-width="5"/>
    <!-- letter-y-inner-stroke -->
    <path d="M169 25.5H127L147.753 70.5H148.247L169 25.5Z" stroke="black" stroke-width="5"/>
  </mask>

  <g mask="url(#atomly-isotype-mask-1)">
    <!-- text -->
    <path d="M44.6875 40.125L17.5 119H1.0625L35.3125 28H45.8125L44.6875 40.125ZM67.4375 119L40.1875 40.125L39 28H49.5625L83.9375 119H67.4375ZM66.125 85.25V97.6875H16.625V85.25H66.125ZM127.688 28L148.812 71.4375L169.938 28H187.312L156.688 85.5V119H140.875V85.5L110.25 28H127.688Z" fill="white"/>
    <!-- letter-a-inner-fill -->
    <path d="M67.5 121.5H17.5L42.5 49L67.5 121.5Z" fill="white" stroke-width="5"/>
    <!-- letter-y-inner-fill -->
    <path d="M169 25.5H127L147.753 70.5H148.247L169 25.5Z" fill="white" stroke-width="5"/>
  </g>
</svg>
