<svg xmlns="http://www.w3.org/2000/svg" width="645" height="583" viewBox="0 0 645 583" fill="none">
  <mask id="__atomly-logo-mask-1">
    <rect width="100%" height="100%" fill="white" />
    <!-- letter-y-ellipse-bottom-mask -->
    <path d="M599 382V303H615V382H599Z" fill="black"/>
  </mask>

  <mask id="__atomly-logo-mask-2">
    <rect width="100%" height="100%" fill="white" />
    <!-- letter-a-ellipse-bottom-mask -->
    <path d="M1 351V336H84V351H1Z" fill="black"/>
    <!-- letter-y-ellipse-top-mask -->
    <path d="M567 245V230H645V245H567Z" fill="black"/>
    <!-- letter-a-inner-fill -->
    <path d="M67.5 338.5H17.5L42.5 266L67.5 338.5Z" fill="black" stroke="black" stroke-width="5"/>
    <!-- letter-y-inner-stroke -->
    <path d="M627 242.5H585L605.753 287.5H606.247L627 242.5Z" stroke="black" stroke-width="5"/>
  </mask>

  <g mask="url(#__atomly-logo-mask-2)">
    <g mask="url(#__atomly-logo-mask-1)">
      <!-- text -->
      <path d="M44.6875 257.125L17.5 336H1.0625L35.3125 245H45.8125L44.6875 257.125ZM67.4375 336L40.1875 257.125L39 245H49.5625L83.9375 336H67.4375ZM66.125 302.25V314.688H16.625V302.25H66.125ZM155.688 245V336H140.125V245H155.688ZM184.25 245V257.5H111.812V245H184.25ZM299.062 288V293C299.062 299.875 298.167 306.042 296.375 311.5C294.583 316.958 292.021 321.604 288.688 325.438C285.396 329.271 281.438 332.208 276.812 334.25C272.188 336.25 267.062 337.25 261.438 337.25C255.854 337.25 250.75 336.25 246.125 334.25C241.542 332.208 237.562 329.271 234.188 325.438C230.812 321.604 228.188 316.958 226.312 311.5C224.479 306.042 223.562 299.875 223.562 293V288C223.562 281.125 224.479 274.979 226.312 269.562C228.146 264.104 230.729 259.458 234.062 255.625C237.438 251.75 241.417 248.812 246 246.812C250.625 244.771 255.729 243.75 261.312 243.75C266.938 243.75 272.062 244.771 276.688 246.812C281.312 248.812 285.292 251.75 288.625 255.625C291.958 259.458 294.521 264.104 296.312 269.562C298.146 274.979 299.062 281.125 299.062 288ZM283.375 293V287.875C283.375 282.792 282.875 278.312 281.875 274.438C280.917 270.521 279.479 267.25 277.562 264.625C275.688 261.958 273.375 259.958 270.625 258.625C267.875 257.25 264.771 256.562 261.312 256.562C257.854 256.562 254.771 257.25 252.062 258.625C249.354 259.958 247.042 261.958 245.125 264.625C243.25 267.25 241.812 270.521 240.812 274.438C239.812 278.312 239.312 282.792 239.312 287.875V293C239.312 298.083 239.812 302.583 240.812 306.5C241.812 310.417 243.271 313.729 245.188 316.438C247.146 319.104 249.479 321.125 252.188 322.5C254.896 323.833 257.979 324.5 261.438 324.5C264.938 324.5 268.042 323.833 270.75 322.5C273.458 321.125 275.75 319.104 277.625 316.438C279.5 313.729 280.917 310.417 281.875 306.5C282.875 302.583 283.375 298.083 283.375 293ZM353.125 245H367.125L393.438 315.188L419.688 245H433.688L398.938 336H387.812L353.125 245ZM346.75 245H360.062L362.375 305.75V336H346.75V245ZM426.75 245H440.125V336H424.438V305.75L426.75 245ZM547.75 323.562V336H502.062V323.562H547.75ZM506.438 245V336H490.75V245H506.438ZM584.688 245L605.812 288.438L626.938 245H644.312L613.688 302.5V336H597.875V302.5L567.25 245H584.688Z" fill="white"/>
    </g>

    <!-- ellipse -->
    <circle cx="322.5" cy="291.5" r="284" stroke="white" stroke-width="15"/>

    <!-- letter-y-inner-fill -->
    <path d="M627 242.5H585L605.753 287.5H606.247L627 242.5Z" fill="white" stroke-width="5"/>
  </g>
</svg>
